HIERARCHY
ROOT Hips
{
	OFFSET 0.00000 0.00000 0.00000
	CHANNELS 6 Xposition Yposition Zposition Zrotation Yrotation Xrotation 
	JOINT LHipJoint
	{
		OFFSET 0 0 0
		CHANNELS 3 Zrotation Yrotation Xrotation
		JOINT LeftHip
		{
			OFFSET 1.37959 -1.78713 0.86582
			CHANNELS 3 Zrotation Yrotation Xrotation
			JOINT LeftKnee
			{
				OFFSET 2.54611 -6.99539 0.00000
				CHANNELS 3 Zrotation Yrotation Xrotation
				JOINT LeftAnkle
				{
					OFFSET 2.59951 -7.14211 0.00000
					CHANNELS 3 Zrotation Yrotation Xrotation
					JOINT LeftToe
					{
						OFFSET 0.18493 -0.50810 1.96120
						CHANNELS 3 Zrotation Yrotation Xrotation
						End Site
						{
							OFFSET 0.00000 -0.00000 1.02054
						}
					}
				}
			}
		}
	}
	JOINT RHipJoint
	{
		OFFSET 0 0 0
		CHANNELS 3 Zrotation Yrotation Xrotation
		JOINT RightHip
		{
			OFFSET -1.33564 -1.78713 0.86582
			CHANNELS 3 Zrotation Yrotation Xrotation
			JOINT RightKnee
			{
				OFFSET -2.52705 -6.94302 0.00000
				CHANNELS 3 Zrotation Yrotation Xrotation
				JOINT RightAnkle
				{
					OFFSET -2.55964 -7.03257 0.00000
					CHANNELS 3 Zrotation Yrotation Xrotation
					JOINT RightToe
					{
						OFFSET -0.25804 -0.70896 2.12109
						CHANNELS 3 Zrotation Yrotation Xrotation
						End Site
						{
							OFFSET -0.00000 -0.00000 1.11821
						}
					}
				}
			}
		}
	}
	JOINT lowerback
	{
		OFFSET 0 0 0
		CHANNELS 3 Zrotation Yrotation Xrotation
		JOINT Chest
		{
			OFFSET -0.02031 2.24248 -0.18900
			CHANNELS 3 Zrotation Yrotation Xrotation
			JOINT Chest2
			{
				OFFSET 0.08342 2.24689 -0.03799
				CHANNELS 3 Zrotation Yrotation Xrotation
				JOINT lowerneck
				{
					OFFSET 0 0 0
					CHANNELS 3 Zrotation Yrotation Xrotation
					JOINT Neck
					{
						OFFSET -0.11607 1.55844 0.24628
						CHANNELS 3 Zrotation Yrotation Xrotation
						JOINT Head
						{
							OFFSET 0.06877 1.60174 -0.17013
							CHANNELS 3 Zrotation Yrotation Xrotation
							End Site
							{
								OFFSET 0.03358 1.61266 -0.08543
							}
						}
					}
				}
				JOINT LeftCollar
				{
					OFFSET 0 0 0
					CHANNELS 3 Zrotation Yrotation Xrotation
					JOINT LeftShoulder
					{
						OFFSET 3.47537 0.55866 -0.72348
CHANNELS 3 Zrotation Xrotation Yrotation
						JOINT LeftElbow
						{
OFFSET 0 -5.381540 0.000000
CHANNELS 3 Zrotation Xrotation Yrotation
							JOINT LeftWrist
							{
OFFSET 0 -3.333120 0.000000
CHANNELS 3 Zrotation Xrotation Yrotation
								JOINT lhand
								{
									OFFSET 0 0 0
CHANNELS 3 Zrotation Xrotation Yrotation
									JOINT LFingers
									{
OFFSET 0 -0.710790 0.000000
CHANNELS 3 Zrotation Xrotation Yrotation
										End Site
										{
OFFSET 0 -0.573060 0.000000
										}
									}
								}
								JOINT LThumb
								{
OFFSET 0 0.000000 0.000000
CHANNELS 3 Zrotation Xrotation Yrotation
									End Site
									{
OFFSET 0 -0.581810 0.581810
									}
								}
							}
						}
					}
				}
				JOINT RightCollar
				{
					OFFSET 0 0 0
					CHANNELS 3 Zrotation Yrotation Xrotation
					JOINT RightShoulder
					{
						OFFSET -3.27844 0.90739 -0.35708
CHANNELS 3 Zrotation Xrotation Yrotation
						JOINT RightElbow
						{
OFFSET 0 -5.169540 0.000000
CHANNELS 3 Zrotation Xrotation Yrotation
							JOINT RightWrist
							{
OFFSET 0 -3.382870 0.000000
CHANNELS 3 Zrotation Xrotation Yrotation
								JOINT rhand
								{
									OFFSET 0 0 0
CHANNELS 3 Zrotation Xrotation Yrotation
									JOINT RFingers
									{
OFFSET 0 -0.817970 0.000000
CHANNELS 3 Zrotation Xrotation Yrotation
										End Site
										{
OFFSET 0 -0.659470 0.000000
										}
									}
								}
								JOINT RThumb
								{
OFFSET 0 0.000000 0.000000
CHANNELS 3 Zrotation Xrotation Yrotation
									End Site
									{
OFFSET 0 -0.669530 0.669530
									}
								}
							}
						}
					}
				}
			}
		}
	}
}
MOTION
Frames: 4
Frame Time: 0.008333333333333333
7.328584 16.877978 -2.407712 22.923641 -265.286332 -339.062127 0.000000 0.000000 0.000000 -0.160161 -5.369816 -3.407489 1.586732 7.945991 22.550351 0.314522 -14.292469 -13.349602 3.885910 -12.005027 -35.752589 0.000000 0.000000 0.000000 4.986869 16.562536 -11.276523 -3.235986 -11.067628 32.508226 -0.728063 2.691737 -15.431951 -0.034679 -1.080657 2.971938 -1.907341 -3.008001 9.784044 3.152468 -3.976625 2.191923 4.823285 -1.924720 -2.832196 -14.824708 -9.693983 -9.608139 9.734824 -12.091582 9.099818 4.351326 -5.859914 5.820042 0.000000 0.000000 0.000000 0.398743 -3.503781 4.581992 15.408123 -24.711459 3.394828 -1.496110 10.078078 -36.778849 0.000000 0.000000 0.000000 -7.125000 0.000000 0.000000 -42.041040 61.635792 18.824535 0.000000 0.000000 0.000000 -9.871261 1.693447 -5.254834 -15.167686 -24.378799 -3.295054 -15.294196 -11.842616 -20.896182 0.000000 0.000000 0.000000 7.125000 0.000000 0.000000 8.460241 8.575791 7.184680
7.301097 16.838787 -2.850588 0.642567 -265.624336 -362.449758 0.000000 0.000000 0.000000 -4.118550 -6.030159 -2.562788 1.808109 8.453400 24.100509 0.616299 -14.657890 -16.239111 3.964391 -12.090139 -36.083361 0.000000 0.000000 0.000000 1.635778 15.296323 -9.657593 -3.103132 -10.860087 31.809490 -0.717126 3.273449 -15.224279 -0.081351 -1.816346 4.998927 -2.850906 -3.886452 10.673134 2.626271 -5.264055 2.518162 4.997440 -2.563252 -2.822306 -15.840848 -9.690693 -10.539823 10.172120 -11.899568 9.878567 4.627301 -5.752550 6.287156 0.000000 0.000000 0.000000 0.629931 -4.733548 1.645971 15.910215 -25.398758 3.607400 -0.665989 10.670644 -34.836344 0.000000 0.000000 0.000000 -7.125000 0.000000 0.000000 -39.003059 60.354997 16.024709 0.000000 0.000000 0.000000 -9.889993 0.168740 -1.290088 -15.668595 -25.069153 -3.504429 -16.842766 -13.739344 -21.541646 0.000000 0.000000 0.000000 7.125000 0.000000 0.000000 7.509135 7.724187 6.488882
7.259021 16.808197 -3.204968 -20.759589 -264.984912 -384.518045 0.000000 0.000000 0.000000 -7.838060 -6.636250 -3.406773 2.219801 9.308226 26.765415 0.955350 -12.778947 -18.377384 5.365981 -13.772490 -42.357195 0.000000 0.000000 0.000000 -1.069825 14.710720 -8.467233 -2.976021 -10.655985 31.128360 -0.686527 1.354847 -15.259292 -0.057711 -1.532201 4.214832 -4.336956 -4.256687 11.356594 2.069022 -5.962523 2.571210 5.380405 -2.900147 -2.973913 -15.998194 -9.367302 -10.598082 10.478175 -11.492459 10.295229 4.799397 -5.542682 6.403912 0.000000 0.000000 0.000000 1.670123 -6.187864 -1.333093 16.073537 -25.620199 3.677720 -1.381316 11.680253 -32.843774 0.000000 0.000000 0.000000 -7.125000 0.000000 0.000000 -37.613445 58.623686 13.750735 0.000000 0.000000 0.000000 -8.726237 -0.222570 0.493243 -16.478642 -26.165187 -3.854764 -19.022160 -16.085860 -22.682856 0.000000 0.000000 0.000000 7.125000 0.000000 0.000000 6.213792 6.247021 5.533772
7.223214 16.849289 -3.531488 -3.597138 -266.081182 -366.783649 0.000000 0.000000 0.000000 -7.185529 -8.031931 -4.752037 2.641341 10.089742 29.268438 0.991758 -13.522581 -18.862167 4.112458 -12.304629 -36.823980 0.000000 0.000000 0.000000 0.266684 15.278822 -8.483884 -2.748047 -10.275161 29.872920 -0.552523 -2.250227 -15.045322 -0.166263 -2.522729 6.957925 -2.527903 -4.245883 10.420187 2.753345 -5.696494 2.524821 4.973753 -2.784784 -2.650272 -18.366049 -9.897626 -10.711118 11.450619 -11.972726 10.609507 5.409935 -5.801582 6.802681 0.000000 0.000000 0.000000 2.269413 -7.880393 -3.632961 16.735452 -26.506724 3.969044 -4.838010 12.261979 -32.108872 0.000000 0.000000 0.000000 -7.125000 0.000000 0.000000 -40.125774 57.287959 13.531722 0.000000 0.000000 0.000000 -8.208000 -0.196758 1.015144 -17.132632 -27.032039 -4.147586 -18.924609 -15.980383 -22.681148 0.000000 0.000000 0.000000 7.125000 0.000000 0.000000 6.274287 6.263690 5.586907
